# xmcd
# 
# Track frame offsets:
#     150
#     13517
#     26445
#     39017
#     55665
#     70977
#     85502
#     96512
#     112087
#     124490
#     141110
#     160517
#     173242
#     188462
#     199552
#     214267
#     232087
#     247200
#     262415
#     273572
#     288947
#     302352
# 
# Disc length: 4274
# 
# Revision: 7
# Processed by: cddbd v1.5.2PL0 Copyright (c) Steve Scherf et al.
# Submitted via: fre:ac v1.0.17
# 
DISCID=3910b016
DTITLE=Various Artist - Contemporary Country The Mid '80s Pure Gold
DYEAR=1991
DGENRE=Country
TTITLE0=Randy Travis - Diggin Up Bones
TTITLE1=Merle Haggard - Let's Chase Each Other Around The Room
TTITLE2=John Anderson - She Sure Got Away With My Heart
TTITLE3=Gary Morris - I'll Never Stop Loving You
TTITLE4=Reba McEntire - Whoever's In New England
TTITLE5=Nitty Gritty Dirt Band - High Horse
TTITLE6=Conway Twitty - Desperado Love
TTITLE7=Statler Brothers The - Elizabeth
TTITLE8=Janie Frickie - She's Single Again
TTITLE9=David Allen Coe - Mona Lisa Lost Her Smile
TTITLE10=Crystal Gayle - Cry
TTITLE11=Dwight Yokam - Honky Tonk Man
TTITLE12=Judds The - Have Mercy
TTITLE13=George Jones - She's My Rock
TTITLE14=Forester Sisters The - I Fell In Love Again Last Night
TTITLE15=Ronnie Milsap - She Keeps The Home Fires Buring
TTITLE16=John Schneider - You're The Last Thing I Needed Tonight
TTITLE17=Dolly Parton - Tennessee Homesick Blues
TTITLE18=Eddie Raven - I Got Mexico
TTITLE19=Alabama - If You're Gonna Play in Texas You Gotta Have a Fiddle in The Band
TTITLE20=Hank Williams  Jr - All My Rowdy Friends Are Coming Over Tonight
TTITLE21=Bellamy Brothers The - Old Hippie
EXTD=
EXTT0=
EXTT1=
EXTT2=
EXTT3=
EXTT4=
EXTT5=
EXTT6=
EXTT7=
EXTT8=
EXTT9=
EXTT10=
EXTT11=
EXTT12=
EXTT13=
EXTT14=
EXTT15=
EXTT16=
EXTT17=
EXTT18=
EXTT19=
EXTT20=
EXTT21=
PLAYORDER=
